<?xml version="1.0" encoding="utf-8"?>
<!-- Generator: Adobe Illustrator 24.0.0, SVG Export Plug-In . SVG Version: 6.00 Build 0)  -->
<svg version="1.1" id="ab75d497-6653-4412-a7ae-8a4fb5ef85b8"
	 xmlns="http://www.w3.org/2000/svg" xmlns:xlink="http://www.w3.org/1999/xlink" x="0px" y="0px" viewBox="0 0 674.7 489"
	 style="enable-background:new 0 0 674.7 489;" xml:space="preserve">
<style type="text/css">
	.st0{fill:#FFFFFF;}
	.st1{fill:#E5E5E5;}
	.st2{fill:#6C63FF;}
	.st3{fill:#F2C6AF;}
	.st4{fill:#4B9199;}
</style>
<path class="st0" d="M218.6,388.4l-98-63.8L199.1,204l98,63.8L218.6,388.4z"/>
<path class="st1" d="M218.6,388.4l-98-63.8L199.1,204l98,63.8L218.6,388.4z M123.6,323.9l94.4,61.5l76.2-117L199.8,207L123.6,323.9z
	"/>
<rect x="215.1" y="258.5" transform="matrix(0.5457 -0.838 0.838 0.5457 -145.5687 313.9402)" class="st2" width="3.3" height="65.4"/>
<rect x="210.5" y="265.6" transform="matrix(0.5457 -0.838 0.838 0.5457 -153.6159 313.2921)" class="st2" width="3.3" height="65.4"/>
<rect x="205.9" y="272.7" transform="matrix(0.5457 -0.838 0.838 0.5457 -161.6606 312.6439)" class="st2" width="3.3" height="65.4"/>
<circle class="st2" cx="184.4" cy="270.7" r="2.1"/>
<rect x="235" y="228" transform="matrix(0.5457 -0.838 0.838 0.5457 -110.8989 316.733)" class="st1" width="3.3" height="65.4"/>
<rect x="230.4" y="235.1" transform="matrix(0.5457 -0.838 0.838 0.5457 -118.9448 316.0849)" class="st1" width="3.3" height="65.4"/>
<rect x="225.8" y="242.2" transform="matrix(0.5457 -0.838 0.838 0.5457 -126.992 315.4369)" class="st1" width="3.3" height="65.4"/>
<circle class="st1" cx="204.5" cy="239.9" r="2.1"/>
<rect x="195" y="289.4" transform="matrix(0.5457 -0.838 0.838 0.5457 -180.5751 311.1203)" class="st1" width="3.3" height="65.4"/>
<rect x="190.4" y="296.5" transform="matrix(0.5457 -0.838 0.838 0.5457 -188.6211 310.4721)" class="st1" width="3.3" height="65.4"/>
<rect x="185.8" y="303.6" transform="matrix(0.5457 -0.838 0.838 0.5457 -196.667 309.824)" class="st1" width="3.3" height="65.4"/>
<circle class="st1" cx="164.5" cy="301.3" r="2.1"/>
<path class="st3" d="M191.9,322c-0.2-5-4.5-8.8-9.4-8.6c-0.5,0-1.1,0.1-1.6,0.2L169,296.8l-12,4.8l17.2,23.5
	c1.4,4.8,6.5,7.5,11.3,6.1C189.5,329.9,192.2,326.2,191.9,322L191.9,322z"/>
<path class="st4" d="M168.7,320.7l-36.1-46.8l13.5-42.5c1-10.7,7.7-13.7,8-13.8l0.4-0.2l11.8,31.4l-8.6,23l21.2,35.6L168.7,320.7z"
	/>
<image style="overflow:visible;" width="1363" height="697" xlink:href="../../../../../Desktop/TUBESKU/pallette.jpg"  transform="matrix(2.693796e-11 -0.6 0.6 2.693796e-11 -471.8573 626.3983)">
</image>
</svg>
