<?xml version="1.0" encoding="utf-8"?>
<!-- Generator: Adobe Illustrator 24.0.0, SVG Export Plug-In . SVG Version: 6.00 Build 0)  -->
<svg version="1.1" id="ab75d497-6653-4412-a7ae-8a4fb5ef85b8"
	 xmlns="http://www.w3.org/2000/svg" xmlns:xlink="http://www.w3.org/1999/xlink" x="0px" y="0px" viewBox="0 0 674.7 489"
	 style="enable-background:new 0 0 674.7 489;" xml:space="preserve">
<style type="text/css">
	.st0{fill:#F2C6AF;}
	.st1{fill:#1E2526;}
	.st2{fill:#4B9199;}
	.st3{fill:#FFFFFF;}
	.st4{fill:#E5E5E5;}
	.st5{fill:#6C63FF;}
</style>
<polygon class="st0" points="197.1,477.7 207.9,477.7 213,436.2 197.1,436.2 "/>
<path class="st1" d="M194.3,474.2l21.2,0h0c7.5,0,13.5,6,13.5,13.5v0.4l-34.7,0L194.3,474.2z"/>
<polygon class="st0" points="121.7,470.4 132.2,473 147.1,433.9 131.7,430.1 "/>
<path class="st1" d="M119.9,466.3l20.6,5.1l0,0c7.2,1.8,11.7,9.1,9.9,16.4l-0.1,0.4l-33.7-8.3L119.9,466.3z"/>
<path class="st1" d="M161.5,301.6l-9.5,53.9c0,0-3.6,6.6-2.2,9.5s2.2,2.9,0,4.4s-5.1,0-4.4,3.6c0.4,2.2,0.7,4.4,0.7,6.6l-20.4,69.9
	c0,0-13.1,5.8-3.6,9.5s18.9,6.6,21.1,2.9s0-8,0-8l33.5-80.1c0,0,5.1-7.3,5.1-11.6s16.7-35.7,16.7-35.7s0.7,31.3,1.5,33.5
	s-1.5,6.6-1.5,9.5s-1.5,2.9,0,4.4s1.5,18.2,1.5,18.2s-8.7,64.8-3.6,65.5s19.7-0.7,19.7-3.6c0.1-1.6-0.7-3-2.2-3.6l9.5-55.3
	c-0.4-2.2-0.1-4.5,0.7-6.6c1.5-2.9,1.5-2.9,1.5-4.4s-0.7-2.2,0-2.9c0.5-0.6,0.7-1.4,0.7-2.2c0,0-1.5-4.4-0.7-5.1
	s16.7-55.3,11.6-61.9S161.5,301.6,161.5,301.6z"/>
<circle class="st0" cx="194.1" cy="166.4" r="18.9"/>
<path class="st1" d="M180.7,180.1c1-0.7,1-2.1,0.7-3.4c-0.5-1.2-0.8-2.4-0.9-3.6c0.1-3.4,4.8-4.7,5.1-8.1c0.2-2.1-1.4-4.4-0.5-6.1
	c0.6-1.1,1.9-1.5,3.2-1.7c4.8-0.8,9.7-0.8,14.5,0.2l0.7-1.8l3.5,2.3c0.2-1.1,1.8-1.3,2.8-0.7s1.9,1.5,3,1.7c1.8,0.3,3.2-1.6,3.1-3.5
	c-0.3-1.9-1.1-3.6-2.4-5c-3-3.7-6.6-6.8-10.7-9.2l1-1.8l-2.1,0.8l-0.2-2.1l-2.1,1.2l0-1.9c-2.2,2.5-6,2.4-9.4,2.7
	c-5.6,0.3-11,2.3-15.4,5.7c-4.5,3.6-7.2,9-7.5,14.7c-0.2,4.5,1.3,9.9,4.6,13.2C174.7,176.6,179.2,174.7,180.7,180.1z"/>
<path class="st0" d="M240.5,350.1c-3.6-3.4-3.8-9.1-0.4-12.7c0.4-0.4,0.8-0.7,1.2-1.1l-5-20l11.4-6l6.7,28.3
	c2.7,4.2,1.5,9.8-2.7,12.5C248.2,353.4,243.6,352.9,240.5,350.1L240.5,350.1z"/>
<path class="st2" d="M210.1,324.2c-23,0-44.2-10.4-44.5-10.6l-0.2-0.1l-1.9-46.3c-0.6-1.6-11.6-33.9-13.5-44.2
	c-1.9-10.4,25.5-19.5,28.9-20.6l0.8-8.4l30.7-3.3l3.9,10.7l11,4.1c2.6,1,4,3.7,3.4,6.4l-6.1,24.9l12.1,82.4l-0.3,0.1
	C226.6,322.7,218.4,324.4,210.1,324.2z"/>
<path class="st2" d="M237.6,329.4l-10.7-43.9l-11.6-53l5.9-26.4h5c0.1,0,9.2,0.1,11.2,11.9c1.9,11.4,7.6,47.7,7.7,48.1l9.7,62
	L237.6,329.4z"/>
<path class="st3" d="M218.6,388.4l-98-63.8L199.1,204l98,63.8L218.6,388.4z"/>
<path class="st4" d="M218.6,388.4l-98-63.8L199.1,204l98,63.8L218.6,388.4z M123.6,323.9l94.4,61.5l76.2-117L199.8,207L123.6,323.9z
	"/>
<rect x="215.1" y="258.5" transform="matrix(0.5457 -0.838 0.838 0.5457 -145.5687 313.9402)" class="st5" width="3.3" height="65.4"/>
<rect x="210.5" y="265.6" transform="matrix(0.5457 -0.838 0.838 0.5457 -153.6159 313.2921)" class="st5" width="3.3" height="65.4"/>
<rect x="205.9" y="272.7" transform="matrix(0.5457 -0.838 0.838 0.5457 -161.6606 312.6439)" class="st5" width="3.3" height="65.4"/>
<circle class="st5" cx="184.4" cy="270.7" r="2.1"/>
<rect x="235" y="228" transform="matrix(0.5457 -0.838 0.838 0.5457 -110.8989 316.733)" class="st4" width="3.3" height="65.4"/>
<rect x="230.4" y="235.1" transform="matrix(0.5457 -0.838 0.838 0.5457 -118.9448 316.0849)" class="st4" width="3.3" height="65.4"/>
<rect x="225.8" y="242.2" transform="matrix(0.5457 -0.838 0.838 0.5457 -126.992 315.4369)" class="st4" width="3.3" height="65.4"/>
<circle class="st4" cx="204.5" cy="239.9" r="2.1"/>
<rect x="195" y="289.4" transform="matrix(0.5457 -0.838 0.838 0.5457 -180.5751 311.1203)" class="st4" width="3.3" height="65.4"/>
<rect x="190.4" y="296.5" transform="matrix(0.5457 -0.838 0.838 0.5457 -188.6211 310.4721)" class="st4" width="3.3" height="65.4"/>
<rect x="185.8" y="303.6" transform="matrix(0.5457 -0.838 0.838 0.5457 -196.667 309.824)" class="st4" width="3.3" height="65.4"/>
<circle class="st4" cx="164.5" cy="301.3" r="2.1"/>
<path class="st0" d="M191.9,322c-0.2-5-4.5-8.8-9.4-8.6c-0.5,0-1.1,0.1-1.6,0.2L169,296.8l-12,4.8l17.2,23.5
	c1.4,4.8,6.5,7.5,11.3,6.1C189.5,329.9,192.2,326.2,191.9,322L191.9,322z"/>
<path class="st2" d="M168.7,320.7l-36.1-46.8l13.5-42.5c1-10.7,7.7-13.7,8-13.8l0.4-0.2l11.8,31.4l-8.6,23l21.2,35.6L168.7,320.7z"
	/>
<image style="overflow:visible;" width="1363" height="697" xlink:href="../../../../../Desktop/TUBESKU/pallette.jpg"  transform="matrix(2.693796e-11 -0.6 0.6 2.693796e-11 -471.8573 626.3983)">
</image>
</svg>
